<?xml version="1.0" encoding="UTF-8" ?>
<!DOCTYPE svg PUBLIC "-//W3C//DTD SVG 1.1//EN" "http://www.w3.org/Graphics/SVG/1.1/DTD/svg11.dtd">
<svg width="225pt" height="225pt" viewBox="0 0 225 225" version="1.1" xmlns="http://www.w3.org/2000/svg">
<path fill="#010101" d=" M 0.00 0.00 L 225.00 0.00 L 225.00 225.00 L 0.00 225.00 L 0.00 0.00 Z" />
<path fill="#fefefe" d=" M 118.06 57.85 C 119.72 52.42 124.09 48.44 128.71 45.43 C 128.96 45.50 129.47 45.63 129.73 45.69 C 122.73 51.77 119.97 61.37 118.78 70.27 C 117.19 66.35 116.56 61.90 118.06 57.85 Z" />
<path fill="#fefefe" d=" M 79.71 50.11 C 86.50 53.45 94.05 57.47 97.21 64.75 C 98.74 67.92 97.13 71.21 95.68 74.06 C 96.24 68.94 94.73 63.72 91.32 59.83 C 88.18 55.79 83.82 53.05 79.71 50.11 Z" />
<path fill="#fefefe" d=" M 156.47 57.63 C 165.47 53.97 175.41 53.71 184.97 54.50 C 184.11 69.12 175.07 83.66 160.94 88.67 C 150.41 90.32 138.93 88.54 130.24 82.05 C 135.42 70.93 145.06 62.06 156.47 57.63 Z" />
<path fill="#fefefe" d=" M 29.88 65.60 C 41.34 68.52 52.55 72.26 63.90 75.52 C 63.03 76.18 62.16 76.84 61.30 77.51 C 61.30 79.22 61.02 81.26 62.69 82.34 C 63.96 82.61 65.27 82.56 66.56 82.58 C 67.89 80.89 68.16 78.91 67.60 76.86 C 74.53 79.43 81.53 81.84 88.31 84.82 C 84.61 86.03 81.02 87.87 77.05 87.89 C 68.16 88.46 59.20 87.85 50.43 86.32 C 49.24 86.03 47.90 85.97 46.92 85.15 C 40.13 79.71 34.43 73.00 29.88 65.60 Z" />
<path fill="#010101" d=" M 150.47 71.87 C 150.11 69.82 152.59 69.33 153.93 68.60 C 154.58 68.92 155.88 69.57 156.53 69.89 C 156.68 71.42 157.75 73.28 156.35 74.56 C 154.48 77.10 149.47 75.28 150.47 71.87 Z" />
<path fill="#fefefe" d=" M 107.41 80.81 C 109.24 82.15 111.71 83.34 112.09 85.82 C 113.85 97.05 112.86 108.86 117.20 119.58 C 118.86 123.96 121.36 127.95 124.18 131.66 C 117.77 130.09 110.78 125.92 109.66 118.86 C 109.03 106.17 108.64 93.46 107.41 80.81 Z" />
<path fill="#fefefe" d=" M 67.09 97.92 C 72.64 95.54 78.72 92.43 84.87 94.45 C 85.13 95.68 83.80 96.44 83.29 97.41 C 79.84 101.74 76.43 106.17 73.91 111.12 C 70.99 107.09 68.11 102.88 67.09 97.92 Z" />
<path fill="#fefefe" d=" M 134.88 146.78 C 143.63 140.75 150.91 132.60 155.86 123.19 C 155.89 132.30 154.53 141.46 151.36 150.02 C 151.01 150.63 150.35 150.70 149.72 150.74 C 149.78 148.48 149.57 146.22 149.71 143.97 C 150.91 140.56 154.36 137.47 153.23 133.59 C 151.86 137.04 150.11 140.30 148.42 143.60 C 148.33 146.06 148.66 148.52 148.65 150.99 C 147.37 150.10 146.10 149.21 144.83 148.31 C 144.78 150.55 144.87 152.80 144.88 155.04 C 143.52 154.34 142.12 153.73 140.69 153.19 C 138.76 153.89 137.22 155.33 135.48 156.37 C 128.84 160.47 121.13 162.35 113.55 163.82 C 105.59 165.11 97.53 165.99 89.46 165.87 C 89.46 166.20 89.46 166.85 89.46 167.17 C 97.69 167.15 105.89 166.32 114.00 164.96 C 122.97 163.27 132.08 160.73 139.52 155.21 C 141.21 153.45 143.13 156.07 144.98 156.29 C 146.74 155.13 145.88 152.88 146.08 151.18 C 148.13 151.04 150.98 152.19 149.67 154.62 L 149.22 155.19 C 146.02 159.50 143.02 164.37 137.91 166.65 C 127.36 171.63 115.48 172.81 103.97 173.53 C 100.13 173.59 96.25 174.14 92.44 173.60 C 88.67 171.01 86.21 167.02 83.83 163.21 C 86.60 161.97 89.47 160.84 92.56 160.82 C 107.54 159.93 122.57 155.55 134.88 146.78 Z" />
</svg>
